<svg width="128" height="128" viewBox="0 0 128 128" fill="none" xmlns="http://www.w3.org/2000/svg">
<rect width="128" height="128" rx="27" fill="black"/>
<g clip-path="url(#clip0_1367_1635)">
<path d="M87.4085 70.1001C87.6156 69.2962 88.3614 68.7323 89.2163 68.7323H96.5004C97.7128 68.7323 98.6025 69.8364 98.3087 70.9761L92.2864 94.3166C92.0788 95.1204 91.3336 95.6845 90.4786 95.6845H83.194C81.9816 95.6845 81.0919 94.5804 81.3862 93.4408L87.4085 70.1001Z" fill="white"/>
<path d="M67.935 32.3678C68.1424 31.564 68.8879 31 69.7431 31H77.0273C78.2398 31 79.1295 32.1041 78.8352 33.2438L72.8132 56.5843C72.6058 57.3882 71.8604 57.9522 71.0052 57.9522H63.7209C62.5085 57.9522 61.6188 56.8481 61.9129 55.7084L67.935 32.3678Z" fill="white"/>
<path d="M34.9042 49.886C35.1117 49.0821 35.8571 48.5182 36.7123 48.5182H43.9965C45.209 48.5182 46.0986 49.6222 45.8046 50.762L39.7824 74.1025C39.575 74.9064 38.8296 75.4704 37.9744 75.4704H30.6902C29.4777 75.4704 28.5881 74.3663 28.8821 73.2265L34.9042 49.886Z" fill="white"/>
</g>
<defs>
<clipPath id="clip0_1367_1635">
<rect width="71" height="65" fill="white" transform="translate(28 31)"/>
</clipPath>
</defs>
</svg>
