<svg width="500" height="156" viewBox="0 0 500 156" fill="none" xmlns="http://www.w3.org/2000/svg">
<path d="M87.6117 89.476C87.8521 88.5144 88.716 87.8398 89.7072 87.8398H102.534C103.939 87.8398 104.971 89.1604 104.63 90.5237L94.9097 129.404C94.6693 130.365 93.8054 131.04 92.8142 131.04H79.9872C78.5819 131.04 77.5509 129.719 77.8917 128.356L87.6117 89.476Z" fill="white"/>
<path d="M61.6898 28.9955C61.9302 28.0339 62.7942 27.3594 63.7853 27.3594H76.6124C78.0176 27.3594 79.0487 28.68 78.7079 30.0433L68.9879 68.9232C68.7475 69.8848 67.8835 70.5594 66.8924 70.5594H54.0653C52.6601 70.5594 51.629 69.2388 51.9698 67.8755L61.6898 28.9955Z" fill="white"/>
<path d="M10.391 57.0756C10.6314 56.114 11.4953 55.4395 12.4865 55.4395H25.3135C26.7188 55.4395 27.7499 56.7601 27.409 58.1233L17.689 97.0033C17.4486 97.9649 16.5847 98.6395 15.5935 98.6395H2.76648C1.36124 98.6395 0.33015 97.3189 0.670969 95.9556L10.391 57.0756Z" fill="white"/>
<path d="M167.426 43.3504H198.53C204.405 43.3504 209.347 44.3872 213.356 46.4608C217.434 48.5344 220.475 51.4029 222.48 55.0662C224.553 58.6605 225.59 62.7386 225.59 67.3005C225.59 71.8624 224.553 75.9405 222.48 79.5347C220.475 83.129 217.434 85.9974 213.356 88.1402C209.347 90.2138 204.405 91.2506 198.53 91.2506H180.593V118H167.426V43.3504ZM198.011 79.6384C202.78 79.6384 206.34 78.567 208.69 76.4243C211.04 74.2816 212.215 71.2403 212.215 67.3005C212.215 63.3606 211.04 60.3194 208.69 58.1766C206.34 55.9648 202.78 54.8589 198.011 54.8589H180.593V79.6384H198.011ZM232.461 43.3504H244.903V71.033C246.838 68.5446 249.188 66.5747 251.953 65.1232C254.787 63.6026 258.001 62.8422 261.595 62.8422C265.673 62.8422 269.129 63.7408 271.963 65.5379C274.866 67.2659 277.044 69.7197 278.495 72.8992C280.016 76.0096 280.776 79.6384 280.776 83.7856V118H268.438V85.2371C268.438 81.6429 267.54 78.8435 265.743 76.839C264.015 74.7654 261.353 73.7286 257.759 73.7286C255.824 73.7286 253.888 74.1434 251.953 74.9728C250.018 75.8022 248.359 77.3229 246.976 79.5347C245.594 81.6774 244.903 84.5805 244.903 88.2438V118H232.461V43.3504ZM314.905 119.244C309.375 119.244 304.537 118.035 300.389 115.615C296.311 113.196 293.201 109.844 291.058 105.558C288.916 101.273 287.844 96.4346 287.844 91.0432C287.844 85.6518 288.916 80.8134 291.058 76.528C293.201 72.2426 296.311 68.8902 300.389 66.471C304.537 64.0518 309.375 62.8422 314.905 62.8422C320.434 62.8422 325.273 64.0518 329.42 66.471C333.567 68.8902 336.712 72.2426 338.855 76.528C340.997 80.8134 342.069 85.6518 342.069 91.0432C342.069 96.4346 340.997 101.273 338.855 105.558C336.712 109.844 333.567 113.196 329.42 115.615C325.273 118.035 320.434 119.244 314.905 119.244ZM314.905 108.876C318.153 108.876 320.849 108.15 322.992 106.699C325.134 105.178 326.724 103.105 327.761 100.478C328.867 97.7824 329.42 94.6374 329.42 91.0432C329.42 87.449 328.867 84.3386 327.761 81.712C326.724 79.0163 325.134 76.9427 322.992 75.4912C320.849 73.9706 318.153 73.2102 314.905 73.2102C311.656 73.2102 308.96 73.9706 306.818 75.4912C304.675 76.9427 303.085 79.0163 302.048 81.712C301.012 84.3386 300.493 87.449 300.493 91.0432C300.493 94.6374 301.012 97.7824 302.048 100.478C303.085 103.105 304.675 105.178 306.818 106.699C308.96 108.15 311.656 108.876 314.905 108.876ZM369.118 118C365.8 118 363.105 117.585 361.031 116.756C358.957 115.926 357.333 114.544 356.158 112.609C355.052 110.604 354.499 107.874 354.499 104.418V73.8323H344.961V64.0864H354.499V47.4976H366.837V64.0864H380.626V73.8323H366.837V103.174C366.837 104.971 367.252 106.284 368.081 107.114C368.911 107.874 370.258 108.254 372.125 108.254H380.626V118H369.118ZM411.805 119.244C406.275 119.244 401.437 118.035 397.29 115.615C393.212 113.196 390.101 109.844 387.959 105.558C385.816 101.273 384.744 96.4346 384.744 91.0432C384.744 85.6518 385.816 80.8134 387.959 76.528C390.101 72.2426 393.212 68.8902 397.29 66.471C401.437 64.0518 406.275 62.8422 411.805 62.8422C417.335 62.8422 422.173 64.0518 426.32 66.471C430.467 68.8902 433.612 72.2426 435.755 76.528C437.898 80.8134 438.969 85.6518 438.969 91.0432C438.969 96.4346 437.898 101.273 435.755 105.558C433.612 109.844 430.467 113.196 426.32 115.615C422.173 118.035 417.335 119.244 411.805 119.244ZM411.805 108.876C415.054 108.876 417.749 108.15 419.892 106.699C422.035 105.178 423.624 103.105 424.661 100.478C425.767 97.7824 426.32 94.6374 426.32 91.0432C426.32 87.449 425.767 84.3386 424.661 81.712C423.624 79.0163 422.035 76.9427 419.892 75.4912C417.749 73.9706 415.054 73.2102 411.805 73.2102C408.556 73.2102 405.861 73.9706 403.718 75.4912C401.575 76.9427 399.985 79.0163 398.949 81.712C397.912 84.3386 397.393 87.449 397.393 91.0432C397.393 94.6374 397.912 97.7824 398.949 100.478C399.985 103.105 401.575 105.178 403.718 106.699C405.861 108.15 408.556 108.876 411.805 108.876ZM445.904 64.0864H457.931V71.5514C459.867 68.9248 462.251 66.8166 465.085 65.2269C467.988 63.6371 471.306 62.8422 475.038 62.8422C479.116 62.8422 482.572 63.7408 485.406 65.5379C488.309 67.2659 490.487 69.7197 491.938 72.8992C493.459 76.0096 494.219 79.6384 494.219 83.7856V118H481.881V85.2371C481.881 81.6429 480.983 78.8435 479.186 76.839C477.458 74.7654 474.796 73.7286 471.202 73.7286C469.267 73.7286 467.332 74.1434 465.396 74.9728C463.461 75.8022 461.802 77.3229 460.42 79.5347C459.037 81.6774 458.346 84.5805 458.346 88.2438V118H445.904V64.0864Z" fill="white"/>
</svg>
